<?xml version="1.0" encoding="UTF-8" standalone="no"?>
<svg
    width="120" height="120"
    viewBox="0 0 120 120"
    version="1.1"
    xmlns="http://www.w3.org/2000/svg">

    <!-- Fondo transparente (sin fondo) -->
    <rect width="100%" height="100%" fill="none"/>

    <!-- Eje Y -->
    <line x1="20" y1="100" x2="20" y2="20" stroke="black" stroke-width="2"/>

    <!-- Eje X -->
    <line x1="20" y1="100" x2="100" y2="100" stroke="black" stroke-width="2"/>

    <!-- Marcas en el eje X -->
    <line x1="30" y1="100" x2="30" y2="97" stroke="black" stroke-width="1"/>
    <line x1="40" y1="100" x2="40" y2="97" stroke="black" stroke-width="1"/>
    <line x1="50" y1="100" x2="50" y2="97" stroke="black" stroke-width="1"/>
    <line x1="60" y1="100" x2="60" y2="97" stroke="black" stroke-width="1"/>
    <line x1="70" y1="100" x2="70" y2="97" stroke="black" stroke-width="1"/>
    <line x1="80" y1="100" x2="80" y2="97" stroke="black" stroke-width="1"/>
    <line x1="90" y1="100" x2="90" y2="97" stroke="black" stroke-width="1"/>

    <!-- Marcas en el eje Y -->
    <line x1="20" y1="90" x2="23" y2="90" stroke="black" stroke-width="1"/>
    <line x1="20" y1="80" x2="23" y2="80" stroke="black" stroke-width="1"/>
    <line x1="20" y1="70" x2="23" y2="70" stroke="black" stroke-width="1"/>
    <line x1="20" y1="60" x2="23" y2="60" stroke="black" stroke-width="1"/>
    <line x1="20" y1="50" x2="23" y2="50" stroke="black" stroke-width="1"/>
    <line x1="20" y1="40" x2="23" y2="40" stroke="black" stroke-width="1"/>
    <line x1="20" y1="30" x2="23" y2="30" stroke="black" stroke-width="1"/>

    <!-- Curva ondulada que representa los datos -->
    <path d="M20 100
             C 35 90, 45 60, 60 65
             C 75 70, 85 90, 100 50"
          fill="none" stroke="black" stroke-width="2"/>
</svg>